<svg width="73" height="15" viewBox="0 0 73 15" fill="none" xmlns="http://www.w3.org/2000/svg">
<rect width="57" height="15" rx="3" fill="#F9E00F"/>
<path d="M2.11506 12L3.56392 3.27273H7.16903C7.82244 3.27273 8.3679 3.39062 8.8054 3.62642C9.2429 3.85937 9.55398 4.1946 9.73864 4.6321C9.9233 5.06676 9.96591 5.58239 9.86648 6.17898C9.76989 6.78125 9.55398 7.29403 9.21875 7.71733C8.88636 8.13778 8.45739 8.45881 7.93182 8.6804C7.40909 8.90199 6.81534 9.01278 6.15057 9.01278H3.87074L4.15199 7.35085H6.03977C6.35511 7.35085 6.62784 7.30966 6.85795 7.22727C7.08807 7.14205 7.27131 7.0142 7.40767 6.84375C7.54688 6.67045 7.6392 6.44886 7.68466 6.17898C7.72727 5.90909 7.70739 5.68608 7.625 5.50994C7.54545 5.33097 7.40483 5.19744 7.20312 5.10938C7.00426 5.01847 6.74858 4.97301 6.43608 4.97301H5.39631L4.22443 12H2.11506ZM7.68892 8.01136L9.2017 12H6.90057L5.43466 8.01136H7.68892ZM10.1541 12L11.603 3.27273H17.6882L17.3984 4.9858H13.4226L13.1328 6.77557H16.7976L16.5078 8.4929H12.843L12.5533 10.2869H16.5291L16.2393 12H10.1541ZM23.2834 5.90625C23.3061 5.58523 23.2209 5.33665 23.0277 5.16051C22.8374 4.98438 22.5362 4.89631 22.1243 4.89631C21.8516 4.89631 21.6186 4.93182 21.4254 5.00284C21.2322 5.07102 21.0803 5.16761 20.9695 5.29261C20.8587 5.41477 20.7891 5.55682 20.7607 5.71875C20.7351 5.84659 20.7422 5.96023 20.782 6.05966C20.8217 6.15909 20.8913 6.24716 20.9908 6.32386C21.093 6.40057 21.2195 6.46733 21.37 6.52415C21.5234 6.58097 21.6953 6.63068 21.8857 6.6733L22.6016 6.84375C23.0163 6.9375 23.3757 7.0625 23.6797 7.21875C23.9865 7.37216 24.2351 7.55824 24.4254 7.77699C24.6158 7.9929 24.7464 8.24148 24.8175 8.52273C24.8885 8.80398 24.8942 9.11932 24.8345 9.46875C24.7436 10.0199 24.5263 10.4929 24.1825 10.8878C23.8416 11.2827 23.3956 11.5852 22.8445 11.7955C22.2962 12.0057 21.6584 12.1108 20.9311 12.1108C20.2038 12.1108 19.5859 12.0014 19.0774 11.7827C18.5717 11.5611 18.2053 11.2273 17.978 10.7812C17.7507 10.3352 17.6896 9.77273 17.7947 9.09375H19.8104C19.7791 9.375 19.8146 9.60938 19.9169 9.79688C20.022 9.98438 20.1839 10.1264 20.4027 10.223C20.6214 10.3196 20.8857 10.3679 21.1953 10.3679C21.4794 10.3679 21.728 10.3295 21.9411 10.2528C22.157 10.1761 22.3288 10.0696 22.4567 9.93324C22.5874 9.79687 22.6669 9.64062 22.6953 9.46449C22.7237 9.30256 22.6967 9.16193 22.6143 9.04261C22.5348 8.9233 22.3984 8.8196 22.2053 8.73153C22.0149 8.64347 21.7649 8.56392 21.4553 8.4929L20.5817 8.27983C19.8601 8.10369 19.3132 7.82244 18.9411 7.43608C18.5717 7.04972 18.4411 6.52557 18.549 5.86364C18.6399 5.32102 18.8643 4.84659 19.2223 4.44034C19.5831 4.03409 20.0391 3.71875 20.5902 3.49432C21.1442 3.26705 21.7536 3.15341 22.4183 3.15341C23.0945 3.15341 23.6626 3.26847 24.1229 3.49858C24.5859 3.72585 24.9197 4.04687 25.1243 4.46165C25.3317 4.87358 25.3913 5.35511 25.3033 5.90625H23.2834ZM32.2109 3.27273H34.3161L33.3828 8.90199C33.2749 9.55256 33.0263 10.1193 32.6371 10.6023C32.2507 11.0824 31.7578 11.4545 31.1584 11.7188C30.5589 11.9801 29.8913 12.1108 29.1555 12.1108C28.4169 12.1108 27.7933 11.9801 27.2848 11.7188C26.7763 11.4545 26.4084 11.0824 26.1811 10.6023C25.9538 10.1193 25.8928 9.55256 25.9979 8.90199L26.9311 3.27273H29.0405L28.1328 8.71875C28.0845 9.01989 28.1072 9.28835 28.201 9.52415C28.2976 9.7571 28.4538 9.94176 28.6697 10.0781C28.8857 10.2116 29.1499 10.2784 29.4624 10.2784C29.7777 10.2784 30.0661 10.2116 30.3274 10.0781C30.5888 9.94176 30.8047 9.7571 30.9751 9.52415C31.1456 9.28835 31.255 9.01989 31.3033 8.71875L32.2109 3.27273ZM34.1893 12L35.6381 3.27273H37.7475L36.5884 10.2869H40.2191L39.9293 12H34.1893ZM40.8285 4.9858L41.1183 3.27273H48.4947L48.2049 4.9858H45.5586L44.3995 12H42.32L43.479 4.9858H40.8285ZM48.8739 12H46.6069L51.0004 3.27273H53.8086L55.3043 12H53.0373L52.0785 5.47159H52.0103L48.8739 12ZM49.1467 8.56534H53.8853L53.6126 10.1676H48.8739L49.1467 8.56534Z" fill="black"/>
<path d="M61.7173 12H59.7401L64.2017 3.27273H66.5795L68.1392 12H66.1619L65.1009 5.26705H65.0327L61.7173 12ZM62.169 8.5696H66.8395L66.5923 10.0099H61.9219L62.169 8.5696ZM72.4837 3.27273L71.0348 12H69.1896L70.6385 3.27273H72.4837Z" fill="white"/>
</svg>
